<svg t="1572518125829" class="icon" viewBox="0 0 1024 1024" version="1.1" xmlns="http://www.w3.org/2000/svg" p-id="8463" width="512" height="512"><path d="M906.3 712H118.1c-29.7 0-53.9-24.3-53.9-54.2V118c0-29.9 24.2-54.2 53.9-54.2h788.2c29.7 0 53.9 24.3 53.9 54.2v539.8c0 29.9-24.2 54.2-53.9 54.2zM118.1 93.4c-13.5 0-24.5 11-24.5 24.6v539.8c0 13.6 11 24.6 24.5 24.6h788.2c13.5 0 24.5-11 24.5-24.6V118c0-13.6-11-24.6-24.5-24.6H118.1z" p-id="8464" fill="#f44000"></path><path d="M945.5 593.3H78.9c-8.1 0-14.7-6.6-14.7-14.8 0-8.2 6.6-14.8 14.7-14.8h866.6c8.1 0 14.7 6.6 14.7 14.8 0 8.2-6.6 14.8-14.7 14.8zM556.2 877.3c-8.1 0-14.7-6.6-14.7-14.8V697.2c0-8.2 6.6-14.8 14.7-14.8s14.7 6.6 14.7 14.8v165.4c0 8.1-6.6 14.7-14.7 14.7zM468.2 877.3c-8.1 0-14.7-6.6-14.7-14.8V697.2c0-8.2 6.6-14.8 14.7-14.8s14.7 6.6 14.7 14.8v165.4c0 8.1-6.5 14.7-14.7 14.7z" p-id="8465" fill="#f44000"></path><path d="M779.1 960H245.4c-23.8 0-43.1-19.5-43.1-43.4v-17c0-23.9 19.4-43.4 43.1-43.4h533.7c23.8 0 43.1 19.5 43.1 43.4v17c0 23.9-19.4 43.4-43.1 43.4z m-533.7-74.2c-7.6 0-13.8 6.2-13.8 13.8v17c0 7.6 6.2 13.8 13.8 13.8h533.7c7.6 0 13.8-6.2 13.8-13.8v-17c0-7.6-6.2-13.8-13.8-13.8H245.4z" p-id="8466" fill="#f44000"></path></svg>