<?xml version="1.0" standalone="no"?><!DOCTYPE svg PUBLIC "-//W3C//DTD SVG 1.1//EN" "http://www.w3.org/Graphics/SVG/1.1/DTD/svg11.dtd"><svg t="1572510054362" class="icon" viewBox="0 0 1024 1024" version="1.1" xmlns="http://www.w3.org/2000/svg" p-id="2067" xmlns:xlink="http://www.w3.org/1999/xlink" width="512" height="512"><defs><style type="text/css"></style></defs><path d="M921.6 614.4 921.6 512 1024 512 1024 614.4 921.6 614.4ZM921.6 0 1024 0 1024 409.6 921.6 409.6 921.6 0ZM716.8 204.8 819.2 204.8 819.2 614.4 716.8 614.4 716.8 204.8ZM716.8 0 819.2 0 819.2 102.4 716.8 102.4 716.8 0ZM1024 1024 716.8 1024 716.8 716.8 1024 716.8 1024 1024ZM921.6 819.2 819.2 819.2 819.2 921.6 921.6 921.6 921.6 819.2ZM204.8 921.6 614.4 921.6 614.4 1024 204.8 1024 204.8 921.6ZM512 716.8 614.4 716.8 614.4 819.2 512 819.2 512 716.8ZM0 0 614.4 0 614.4 614.4 0 614.4 0 0ZM102.4 512 512 512 512 102.4 102.4 102.4 102.4 512ZM204.8 204.8 409.6 204.8 409.6 409.6 204.8 409.6 204.8 204.8ZM409.6 819.2 0 819.2 0 716.8 409.6 716.8 409.6 819.2ZM102.4 1024 0 1024 0 921.6 102.4 921.6 102.4 1024Z" p-id="2068" fill="#FF4400"></path></svg>